<?xml version="1.0" encoding="utf-8"?>
<!-- Generator: Adobe Illustrator 26.0.2, SVG Export Plug-In . SVG Version: 6.00 Build 0)  -->
<svg version="1.1" id="Livello_1" xmlns="http://www.w3.org/2000/svg" xmlns:xlink="http://www.w3.org/1999/xlink" x="0px" y="0px"
	 viewBox="0 0 301.4084473 71.1267624" style="enable-background:new 0 0 301.4084473 71.1267624;" xml:space="preserve">
<style type="text/css">
	.st0{fill:#ffffff;}
</style>
<path class="st0" d="M275.673584,63.1075401l-1.440979-5.2999878l0.7819824-0.3819885
	c0.190979-0.1000061,1.8220215-1.0230103,1.8220215-4.8999939c0,0,0.0139771-33.6820068,0.0139771-34.8059998
	c0.1392212-1.5523376-0.5056763-3.0717154-1.7189941-4.0499868c-0.581543-0.3986816-1.2595215-0.6338806-1.9630127-0.6809998
	l1.5499878-5.5299993h15.5599976l1.5560303,5.5299993c-0.7758789,0.048645-1.5186768,0.3318176-2.1300049,0.8120117
	c-1.1019897,0.9891052-1.6811523,2.4345999-1.5670166,3.9110098c0,1.480011,0.0250244,34.8139954,0.0250244,34.8139954
	c0,3.3999939,1.2449951,4.5339966,1.7080078,4.8359985l0.9000244,0.4460144l-1.4439697,5.2999878L275.673584,63.1075401z
	 M128.9495544,63.1075401l-1.2700272-4.4490051l-0.1749878-0.8519897l0.7860184-0.3840027l-0.0869751,0.0350037
	c0.2280273-0.1000061,1.9310303-0.9490051,1.9310303-4.9289856v-24.507019l-1.3410034,2.2799988
	c-2.4099808,4.1000061-6.3759842,10.8640137-7.900032,13.4609985c-1.5230103-2.6000061-9.242981-15.7510071-9.242981-15.7510071
	v24.519989c0,4.0119934,1.776001,4.8659973,1.9130249,4.9249878l-0.0700073-0.0280151l0.8499756,0.4089966l-1.507019,5.2739868
	H98.7605209l-1.355011-4.7229919l-0.2170105-0.8930054l0.8659973-0.3240051
	c0.447998-0.1380005,2.3359985-0.9379883,2.3359985-4.6390076V17.8375206l0.006012-0.0580139
	c0.3377991-2.0638418-0.9687805-4.0402822-3-4.5379934l-1-0.25l1.553009-5.5299993h14.38797
	c1.0650024,2.0079961,6.0349731,11.368988,7.9180298,14.9100037l0.6370239,1.2000122l0.6350098-1.2000122
	c1.875-3.5400085,6.8419876-12.8999929,7.9080276-14.9080048h14.3889771l1.5570068,5.5300145
	c-0.9118652,0.0796204-1.7823486,0.416687-2.5100098,0.9719849c-1.0878906,0.9359741-1.645752,2.3471365-1.4920044,3.7739859
	v0.3909912v34.3999939c0,3.9509888,2.0170288,4.7999878,2.2470093,4.8789978l0.9180298,0.3429871l-1.5310059,5.3559875
	L128.9495544,63.1075401z M29.4105473,65.7165375c-12.4819946,0-19.07901-10.5799904-19.07901-30.6000099
	c0-28.1999969,15-29.6329956,18.0079956-29.6329956c2.0587158-0.0781708,4.1115437,0.2676544,6.0310078,1.0160065
	l0.2290039,0.0870056l0.6159973,0.2740021c0.5765381,0.3165131,1.221405,0.4881134,1.8789978,0.5
	c0.2244568-0.0009155,0.4485168-0.0196381,0.6700134-0.0559998c0.7765503-0.0921326,1.507843-0.4142609,2.1000061-0.9250031
	l0.0409851-0.0410004l0.3460083-0.3699951l4.256012,0.1909943l0.3179932,18.8310089h-7.9179993h-0.8519897l-0.2309875-1.519989
	c-0.6300049-4.1099854-1.2260132-7.9909964-6.2820148-7.9909964c-6.0769958,0-6.7799988,11.3590078-6.7799988,19.8999939
	c0,13.0780029,2.1080017,19.4349976,6.4450073,19.4349976c3.8340168,0,5.2640095-3.4890137,5.5000019-5.5499878l0.1140137-0.881012
	h10.8889771l-0.0350037,1.0230103C45.3985558,57.5145378,39.7225609,65.7165375,29.4105473,65.7165375z M153.4585571,17.7385216
	c0.15448-1.4266052-0.4022217-2.8379812-1.4890137-3.7749929c-0.7277222-0.5551453-1.5982056-0.8922119-2.5100098-0.9719849
	l1.5570068-5.5299993l16.5,0.0769958c11.8549805,0,18.9329834,6.2730107,18.9329834,16.7810059
	c0,11.4589844-6.0159912,16.7950134-18.9329834,16.7950134h-2.7999878v11.4140015
	c0,4.0119934,1.776001,4.8670044,1.9119873,4.9249878l-0.0689697-0.0280151l0.8499756,0.4079895l-1.5159912,5.2739868h-14.0720215
	l-1.2769775-4.4750061l-0.2130127-0.8940125l0.8870239-0.3340149c0.2189941-0.07901,2.2340088-0.9179993,2.2340088-4.8760071
	V18.7484703L153.4585571,17.7385216z M164.7155762,30.8385277h1.6799927c5.5139771,0,7.9730225-2.0069885,7.9730225-6.5079956
	c0-4.1940002-2.8309937-6.5-7.9730225-6.5h-1.6799927V30.8385277z M256.7225647,63.1075249
	c-1.2620239-3.0289917-8.5889893-20.6109924-9.315979-22.3619995l-0.184021-0.4429932h-2.4920044v12.2210083
	c0,4,1.7130127,4.8420105,1.927002,4.9309998l-0.0869751-0.0339966l0.8499756,0.4089966l-1.5050049,5.2739868h-14.0790405
	l-1.2769775-4.473999l-0.210022-0.8999939l0.8809814-0.3340149c0.0579834-0.0169983,2.2420044-0.7640076,2.2420044-4.875V17.8045158
	v-0.0450134c0.3294067-2.0575247-0.9758911-4.023284-3-4.5180044l-1-0.25l1.5510254-5.5330052l17.4630127,0.0789948
	c11.4160156,0,18.2290039,6.1229863,18.2290039,16.381012c0,6.7489929-2.3259888,11.4630127-6.914978,14.0119934
	l-0.5490112,0.3049927l0.2269897,0.5849915c0.9119873,2.3500061,5.3140259,13.7479858,5.3140259,13.7479858
	c1.8289795,4.6340027,4.6439819,5.2600098,4.7630005,5.2839966l1,0.2250061l-1.1329956,5.0310059L256.7225647,63.1075249z
	 M244.7295837,30.2405205h2.6920166c5.335022,0,7.6119995-1.8880005,7.6119995-6.3110046
	c0-4.0759888-2.7000122-6.3210144-7.6119995-6.3210144h-2.6920166V30.2405205z M211.5325317,63.1725273l-1.2520142-4.3999939
	l-0.184021-0.7890015l0.7260132-0.3880005c0.7528076-0.4589844,1.1793213-1.3058777,1.0999756-2.1839905
	c-0.0025635-0.3386536-0.0441895-0.6758728-0.1240234-1.0050049c0,0-1.1569824-5.1380005-1.5819702-7.0159912l-0.1270142-0.5610046
	h-11.4000244l-0.1270142,0.5599976c-0.4260254,1.8789978-1.5880127,7.0220032-1.5880127,7.0220032
	c-0.0730591,0.3283081-0.1099243,0.6636658-0.1099854,1c-0.0790405,0.8730469,0.3397217,1.7163086,1.0830078,2.1809998
	l0.7739868,0.4110107l-1.4790039,5.1700134h-14.2819214l-1.1110229-5.7640076c1.5-0.2269897,2.5720215-1.322998,3.1290283-3.2059937
	c0.9609985-3.2520142,9.8610229-36.427002,9.9210205-36.6629944l0.0109863-0.0499878
	c0.4371948-1.1894226,0.2784424-2.5162954-0.427002-3.5689993c-0.3727417-0.5201416-0.8707886-0.9377136-1.447998-1.2139893
	l1.4829712-5.1730046h19.7420654l1.473999,5.1669927c-0.5446777,0.245575-1.019165,0.6237793-1.3800049,1.1000061
	c-0.7815552,1.0883179-0.9581299,2.4985952-0.4689941,3.7460012c0.0939941,0.3169861,8.75,33.2940063,9.8220215,36.4150085
	c0.8889771,2.5820007,2.3359985,3.321991,3.3070068,3.5710144l-1.1940308,5.638916H211.5325317z M200.9475098,36.9415398h6.8800049
	l-3.4000244-15.3609924L200.9475098,36.9415398z M77.9885178,63.1725273l-1.2529907-4.3999939l-0.1830139-0.7890015
	l0.7250061-0.3880005c0.7528076-0.4589844,1.1793518-1.3058777,1.1000061-2.1839905
	c-0.0025635-0.3386536-0.0441895-0.6758728-0.1239929-1.0050049c0,0-1.1570129-5.1380005-1.5830078-7.0159912l-0.1270142-0.5610046
	H65.1435165l-0.1270142,0.5599976c-0.4259949,1.8789978-1.5880089,7.0220032-1.5880089,7.0220032
	c-0.0727844,0.3283691-0.1096802,0.6636658-0.1099854,1c-0.0792542,0.8730774,0.3395386,1.7164612,1.083004,2.1809998
	l0.7739868,0.4110107l-1.477993,5.1700134H49.4165306l-1.1109924-5.7640076c1.5-0.2269897,2.571991-1.322998,3.1289978-3.2059937
	c0.9609985-3.2520142,9.8609924-36.427002,9.92099-36.6629944l0.0109863-0.0499878
	c0.4377136-1.1893616,0.2789307-2.516448-0.427002-3.5689993c-0.3727417-0.5201416-0.8708191-0.9377136-1.447998-1.2139893
	l1.4840088-5.1730046h19.7399864l1.4729919,5.1669927c-0.5447998,0.2454529-1.0192871,0.6236572-1.3800049,1.1000061
	c-0.7817383,1.0882263-0.958313,2.4986258-0.4689941,3.7460012c0.0939941,0.3169861,8.7489929,33.2940063,9.8210144,36.4150085
	c0.8890076,2.5820007,2.3359985,3.321991,3.3080139,3.5710144l-1.1929932,5.6419983L77.9885178,63.1725273z M67.4035263,36.9415398
	h6.8800049l-3.3999939-15.3609924L67.4035263,36.9415398z M297.1995544,63.6365356
	c-0.1610107-0.8259888-1.007019-0.9330139-1.7139893-0.9330139h-1.5820312v4.1740112h0.7940063v-1.7780151h0.7819824
	l0.8430176,1.7780151h0.882019l-0.9290161-1.8999939c0.6020508-0.0811768,1.024292-0.6350708,0.9431152-1.2371216
	C297.2139587,63.7055054,297.2076111,63.6708374,297.1995544,63.6365356z M295.3575745,64.601532h-0.6589966v-1.3840027h0.6370239
	c0.5,0,1.0430298,0.0490112,1.0839844,0.6560059c0.0489502,0.6530151-0.5550537,0.7279968-1.06604,0.7279968H295.3575745z
	 M295.3895569,61.1755066c-2.0324097,0.0028076-3.6777344,1.6526489-3.6749268,3.6850586s1.6526489,3.6777344,3.6850586,3.6749268
	s3.6777344-1.6526489,3.6749268-3.6850586c-0.000061-0.0396423-0.0007324-0.0792847-0.0020752-0.118927
	C298.9914246,62.7528687,297.3698425,61.1871948,295.3895569,61.1755066z M295.3575745,68.0465088
	c-1.7672119-0.02005-3.1835327-1.4689026-3.1635132-3.2361145c0.0200806-1.7671814,1.4689331-3.1835327,3.236145-3.1634827
	s3.1835327,1.4689026,3.1634521,3.2361145c0,0.0021667-0.000061,0.004303-0.000061,0.0064697
	c-0.038147,1.7599182-1.4797363,3.1645508-3.2400513,3.1570129H295.3575745z"/>
</svg>
